<svg width="16" height="16" viewBox="0 0 16 16" fill="none" xmlns="http://www.w3.org/2000/svg">
<g id="star">
<path id="Icon" d="M7.50949 2.94093C7.66383 2.59468 7.741 2.42155 7.84846 2.36823C7.9418 2.32192 8.05143 2.32192 8.14478 2.36823C8.25223 2.42155 8.3294 2.59468 8.48375 2.94093L9.7131 5.69888C9.75873 5.80124 9.78155 5.85242 9.81685 5.89162C9.84809 5.9263 9.88626 5.95403 9.92889 5.97302C9.97708 5.99449 10.0328 6.00037 10.1443 6.01213L13.1471 6.32907C13.5241 6.36886 13.7126 6.38875 13.7965 6.47447C13.8694 6.54894 13.9033 6.6532 13.8881 6.75629C13.8706 6.87497 13.7298 7.00186 13.4482 7.25564L11.2051 9.27709C11.1219 9.35211 11.0802 9.38963 11.0539 9.43531C11.0305 9.47574 11.0159 9.52061 11.0111 9.56703C11.0055 9.61949 11.0172 9.6743 11.0404 9.78394L11.6669 12.7378C11.7456 13.1086 11.7849 13.294 11.7293 13.4003C11.681 13.4927 11.5923 13.5571 11.4896 13.5745C11.3713 13.5945 11.2071 13.4998 10.8787 13.3104L8.26308 11.8018C8.166 11.7458 8.11746 11.7178 8.06586 11.7068C8.02021 11.6971 7.97303 11.6971 7.92737 11.7068C7.87577 11.7178 7.82723 11.7458 7.73015 11.8018L5.11449 13.3104C4.78611 13.4998 4.62191 13.5945 4.50364 13.5745C4.4009 13.5571 4.3122 13.4927 4.26391 13.4003C4.20832 13.294 4.24765 13.1086 4.3263 12.7378L4.95281 9.78394C4.97607 9.6743 4.98769 9.61949 4.98217 9.56703C4.97728 9.52061 4.9627 9.47574 4.93937 9.43531C4.91301 9.38963 4.87138 9.35211 4.78813 9.27709L2.54505 7.25564C2.26344 7.00186 2.12264 6.87497 2.10513 6.75629C2.08993 6.6532 2.12381 6.54894 2.1967 6.47447C2.28062 6.38875 2.46912 6.36886 2.84612 6.32907L5.84898 6.01213C5.96043 6.00037 6.01615 5.99449 6.06434 5.97302C6.10698 5.95403 6.14515 5.9263 6.17638 5.89162C6.21169 5.85242 6.2345 5.80124 6.28013 5.69888L7.50949 2.94093Z" fill="#FFBC46" stroke="#FFBC46" stroke-width="2" stroke-linecap="round" stroke-linejoin="round"/>
</g>
</svg>
