<svg width="62" height="60" viewBox="0 0 62 60" fill="none" xmlns="http://www.w3.org/2000/svg">
<g id="Group 1261154181">
<g id="dypius_icon_purple_text_purple">
<g id="Group 1000010408">
<g id="Group 1000010406">
<g id="Group 1000010398">
<path id="Vector" d="M1.13474 30.3809L20.4603 44.745C20.4909 44.745 20.4909 44.7755 20.5216 44.7755L27.6883 50.082C28.3008 50.5395 29.1584 50.1125 29.1584 49.3501L29.189 9.79541C29.1277 9.09397 29.0358 8.36205 28.8827 7.66061C28.7296 6.98968 28.5152 6.34924 28.2089 5.80029C28.7296 9.67342 26.5244 14.187 22.788 17.1452C21.961 17.8161 20.8278 18.5481 19.5721 19.0665C18.2246 19.646 14.1512 21.0488 14.1512 21.0488L1.86978 25.4709C-0.243473 26.2333 -0.672249 29.039 1.13474 30.3809Z" fill="white"/>
<path id="Vector_2" d="M20.3084 18.7305C20.339 18.7 20.4002 18.7 20.4309 18.6695C20.4921 18.639 20.5534 18.6086 20.6452 18.5476C20.7371 18.5171 20.7984 18.4561 20.8903 18.4256C20.9209 18.3951 20.9821 18.3646 21.0128 18.3646C21.1047 18.3036 21.2272 18.2426 21.319 18.1816C21.3497 18.1511 21.3803 18.1511 21.4109 18.1206C21.5028 18.0596 21.5947 17.9986 21.7172 17.9376C21.7784 17.9071 21.8091 17.8766 21.8703 17.8461C21.9316 17.7851 22.0235 17.7546 22.0847 17.6936C22.1766 17.6326 22.2685 17.5412 22.391 17.4802C22.4216 17.4802 22.4216 17.4497 22.4522 17.4497C22.5747 17.3582 22.6973 17.2667 22.8198 17.1752C26.5562 14.217 28.7614 9.70341 28.2407 5.83028C28.0263 5.46432 27.7507 5.12885 27.4444 4.88487L21.074 0.188327C20.4615 -0.269129 19.5733 0.15783 19.5733 0.920256V11.9907C19.5733 18.944 14.1523 21.0483 14.1523 21.0483C14.1523 21.0483 18.2564 19.6759 19.5733 19.0965C19.8183 18.9745 20.0633 18.8525 20.3084 18.7305Z" fill="#F2EEFF"/>
</g>
<g id="Group 1000010399">
<path id="Vector_3" d="M60.4751 29.6194L41.1372 15.2553C41.1065 15.2553 41.1065 15.2248 41.0759 15.2248L33.9046 9.91831C33.2917 9.46085 32.4336 9.88781 32.4336 10.6502V50.2048C32.4949 50.9063 32.5868 51.6382 32.7401 52.3396C32.8933 53.0106 33.1078 53.651 33.4143 54.1999C32.8933 50.3268 35.0998 45.8133 38.8387 42.8551C39.6661 42.1841 40.8001 41.4522 42.0566 40.9338C43.3744 40.3543 47.481 38.9819 47.481 38.9819L59.7702 34.5599C61.8848 33.767 62.2832 30.9612 60.4751 29.6194Z" fill="white"/>
<path id="Vector_4" d="M41.3217 41.2699C41.2911 41.3004 41.2298 41.3004 41.1991 41.3309C41.1378 41.3614 41.0766 41.3919 40.9846 41.4529C40.8927 41.4834 40.8314 41.5444 40.7394 41.5749C40.7088 41.6054 40.6475 41.6359 40.6169 41.6359C40.5249 41.6969 40.4023 41.7579 40.3104 41.8189C40.2797 41.8494 40.2491 41.8494 40.2185 41.8799C40.1265 41.9409 40.0346 42.0018 39.912 42.0628C39.8507 42.0933 39.8201 42.1238 39.7588 42.1543C39.6975 42.2153 39.6055 42.2458 39.5442 42.3068C39.4523 42.3678 39.3604 42.4593 39.2378 42.5203C39.2071 42.5203 39.2071 42.5508 39.1765 42.5508C39.0539 42.6423 38.9313 42.7338 38.8087 42.8253C35.0699 45.7835 32.8633 50.297 33.3843 54.1701C33.5988 54.5361 33.8746 54.8716 34.1811 55.1156L40.5249 59.8121C41.1378 60.2695 42.0266 59.8426 42.0266 59.0802V48.0098C42.0266 41.0869 47.451 38.9521 47.451 38.9521C47.451 38.9521 43.3444 40.3245 42.0266 40.904C41.8121 41.0259 41.5669 41.1479 41.3217 41.2699Z" fill="#F2EEFF"/>
</g>
</g>
</g>
</g>
</g>
</svg>
