<svg width="61" height="60" viewBox="0 0 61 60" fill="none" xmlns="http://www.w3.org/2000/svg">
<path d="M49.074 11.3565C47.2504 7.93382 44.5324 5.06996 41.2096 3.07006C37.8868 1.07016 34.0837 0.00914632 30.2055 5.88687e-05C26.3274 -0.00902858 22.5193 1.03415 19.1872 3.01846C15.8551 5.00276 13.1237 7.85385 11.2841 11.268C7.86574 13.0922 5.00906 15.8133 3.02097 19.139C1.03287 22.4647 -0.0114866 26.2693 9.52934e-05 30.1439C9.52934e-05 38.0839 4.49278 45.4692 11.5042 49.1415C13.3712 52.44 16.0808 55.1834 19.3558 57.0913C22.6308 58.9991 26.3538 60.0029 30.144 60C33.9458 60.0051 37.6802 58.9963 40.9623 57.0774C44.2443 55.1586 46.9553 52.3992 48.8157 49.0837C52.2303 47.2689 55.0904 44.5642 57.0931 41.2563C59.0958 37.9484 60.1665 34.1603 60.1917 30.2935C60.2169 26.4266 59.1957 22.625 57.2363 19.2912C55.277 15.9575 52.4523 13.2157 49.0617 11.3565H49.074ZM30.1022 50.4661C26.0543 50.4666 22.0971 49.2667 18.7311 47.0181C15.3652 44.7696 12.7416 41.5734 11.1922 37.8337C9.64279 34.0941 9.23714 29.9789 10.0265 26.0087C10.816 22.0385 12.765 18.3916 15.6271 15.5291C18.4893 12.6666 22.136 10.7172 26.1061 9.92729C30.0762 9.1374 34.1913 9.54256 37.9312 11.0915C41.671 12.6405 44.8675 15.2637 47.1165 18.6294C49.3654 21.995 50.5658 25.9521 50.5658 30C50.5658 35.4275 48.4099 40.6328 44.5723 44.4708C40.7347 48.3089 35.5297 50.4654 30.1022 50.4661Z" fill="white"/>
</svg>
