<svg width="80" height="80" viewBox="0 0 80 80" fill="none" xmlns="http://www.w3.org/2000/svg">
<g id="Group 1261157222">
<g id="Group 1261157220">
<path id="Vector" d="M80 0V12.87C80 27.6867 68.1 39.7233 53.33 39.9617L52.8817 39.9667H40V52.87C40 68.1117 27.9 80 12.9917 80H0V66.7467V37.9333C0 16.9833 17 0 37.9667 0H80Z" fill="white"/>
<path id="Vector_2" fill-rule="evenodd" clip-rule="evenodd" d="M62.8267 0H80V12.87C80 28.1117 67.9 40 52.9917 40H40V26.7583C40 13.2533 49.8883 2.05667 62.8267 0Z" fill="#242265" fill-opacity="0.8"/>
<path id="Vector_3" d="M80 0V12.87C80 27.6867 68.1 39.7233 53.33 39.9617L52.8817 39.9667H40V52.87C40 68.1117 27.9 80 12.9917 80H0V66.7467V37.9333C0 16.9833 17 0 37.9667 0H80Z" fill="#616EE1" fill-opacity="0.8"/>
</g>
</g>
</svg>
