<svg width="48" height="49" viewBox="0 0 48 49" fill="none" xmlns="http://www.w3.org/2000/svg">
<g id="fluent:collections-24-regular">
<g id="Group">
<path id="Vector" d="M22.1299 16.5078L22.4979 16.4978H37.4979C39.1578 16.4977 40.7549 17.1326 41.9617 18.2725C43.1685 19.4123 43.8934 20.9706 43.9879 22.6278L43.9979 22.9978V37.9978C43.998 39.6581 43.3628 41.2555 42.2225 42.4623C41.0823 43.6691 39.5235 44.3938 37.8659 44.4878L37.4979 44.4978H22.4979C20.8376 44.498 19.2402 43.8627 18.0334 42.7225C16.8266 41.5823 16.1019 40.0235 16.0079 38.3658L15.9979 37.9998V22.9998C15.9978 21.3396 16.633 19.7422 17.7732 18.5354C18.9135 17.3286 20.4723 16.6038 22.1299 16.5098V16.5078ZM37.4979 19.4978H22.4979C21.6195 19.4979 20.7733 19.8282 20.1271 20.4232C19.481 21.0182 19.0822 21.8344 19.0099 22.7098L18.9979 22.9978V37.9978C18.998 38.8765 19.3286 39.7231 19.924 40.3693C20.5194 41.0155 21.3361 41.414 22.2119 41.4858L22.4979 41.4978H37.4979C38.3766 41.4978 39.2231 41.1672 39.8693 40.5718C40.5155 39.9763 40.9141 39.1596 40.9859 38.2838L40.9979 37.9978V22.9978C40.9979 22.0696 40.6291 21.1793 39.9728 20.523C39.3164 19.8666 38.4262 19.4978 37.4979 19.4978ZM29.9979 22.4998C30.3957 22.4998 30.7772 22.6579 31.0586 22.9392C31.3399 23.2205 31.4979 23.602 31.4979 23.9998V28.9958H36.4979C36.8957 28.9958 37.2773 29.1539 37.5586 29.4352C37.8399 29.7165 37.9979 30.098 37.9979 30.4958C37.9979 30.8937 37.8399 31.2752 37.5586 31.5565C37.2773 31.8378 36.8957 31.9958 36.4979 31.9958H31.4979V36.9998C31.4979 37.3977 31.3399 37.7792 31.0586 38.0605C30.7772 38.3418 30.3957 38.4998 29.9979 38.4998C29.6001 38.4998 29.2185 38.3418 28.9372 38.0605C28.6559 37.7792 28.4979 37.3977 28.4979 36.9998V31.9958H23.4979C23.1001 31.9958 22.7185 31.8378 22.4372 31.5565C22.1559 31.2752 21.9979 30.8937 21.9979 30.4958C21.9979 30.098 22.1559 29.7165 22.4372 29.4352C22.7185 29.1539 23.1001 28.9958 23.4979 28.9958H28.4979V23.9998C28.4979 23.602 28.6559 23.2205 28.9372 22.9392C29.2185 22.6579 29.6001 22.4998 29.9979 22.4998ZM31.1619 8.96584L31.2659 9.31984L32.6519 14.4958H29.5459L28.3699 10.0958C28.2511 9.65163 28.0459 9.23518 27.766 8.8703C27.4862 8.50542 27.1372 8.19926 26.7389 7.96932C26.3407 7.73938 25.9011 7.59016 25.4452 7.5302C24.9893 7.47023 24.526 7.50069 24.0819 7.61984L9.59389 11.5038C8.74815 11.7306 8.01813 12.2662 7.54791 13.0049C7.07769 13.7435 6.90142 14.6316 7.05389 15.4938L7.11789 15.7898L11.0019 30.2778C11.1841 30.9586 11.5675 31.5686 12.1021 32.0279C12.6367 32.4871 13.2974 32.7743 13.9979 32.8518V35.8638C12.6975 35.7863 11.4504 35.3202 10.4181 34.5257C9.38575 33.7312 8.61577 32.645 8.20789 31.4078L8.10389 31.0558L4.22189 16.5658C3.7919 14.9626 3.99156 13.2556 4.77994 11.7948C5.56833 10.3341 6.88569 9.23032 8.46189 8.70984L8.81789 8.60584L23.3059 4.72384C24.9091 4.29385 26.6162 4.49351 28.0769 5.2819C29.5376 6.07028 30.6414 7.38764 31.1619 8.96384V8.96584Z" fill="#FDF9FD"/>
</g>
</g>
</svg>
