<svg width="49" height="49" viewBox="0 0 49 49" fill="none" xmlns="http://www.w3.org/2000/svg">
<g id="clarity:wallet-line">
<path id="Vector" d="M43.1659 20.4997H41.8325V12.4997C41.8325 12.146 41.6921 11.8069 41.442 11.5569C41.192 11.3068 40.8528 11.1663 40.4992 11.1663H8.49921C8.18349 11.1715 7.87619 11.0644 7.63202 10.8642C7.38785 10.664 7.22267 10.3836 7.16587 10.073V9.59301C7.22267 9.2824 7.38785 9.00202 7.63202 8.80181C7.87619 8.60159 8.18349 8.49452 8.49921 8.49967H39.9392C40.2928 8.49967 40.632 8.3592 40.882 8.10915C41.1321 7.8591 41.2725 7.51996 41.2725 7.16634C41.2725 6.81272 41.1321 6.47358 40.882 6.22353C40.632 5.97348 40.2928 5.83301 39.9392 5.83301H8.49921C7.43834 5.83301 6.42092 6.25444 5.67078 7.00458C4.92063 7.75473 4.49921 8.77214 4.49921 9.83301C4.48985 9.99287 4.48985 10.1531 4.49921 10.313V37.7397C4.50444 38.4576 4.65103 39.1674 4.9306 39.8286C5.21017 40.4899 5.61725 41.0896 6.1286 41.5935C6.63994 42.0974 7.24554 42.4957 7.9108 42.7655C8.57607 43.0354 9.28797 43.1716 10.0059 43.1663H40.4992C40.8528 43.1663 41.192 43.0259 41.442 42.7758C41.6921 42.5258 41.8325 42.1866 41.8325 41.833V33.833H43.1659C43.5195 33.833 43.8586 33.6925 44.1087 33.4425C44.3587 33.1924 44.4992 32.8533 44.4992 32.4997V21.833C44.4992 21.4794 44.3587 21.1402 44.1087 20.8902C43.8586 20.6401 43.5195 20.4997 43.1659 20.4997ZM39.1659 40.4997H10.0059C9.26427 40.5068 8.54985 40.2209 8.01799 39.704C7.48614 39.1871 7.1799 38.4812 7.16587 37.7397V13.673C7.59867 13.7984 8.04902 13.8525 8.49921 13.833H39.1659V20.4997H29.8325C28.0644 20.4997 26.3687 21.202 25.1185 22.4523C23.8682 23.7025 23.1659 25.3982 23.1659 27.1663C23.1659 28.9344 23.8682 30.6301 25.1185 31.8804C26.3687 33.1306 28.0644 33.833 29.8325 33.833H39.1659V40.4997ZM41.8325 31.1663H29.8325C28.7717 31.1663 27.7543 30.7449 27.0041 29.9948C26.254 29.2446 25.8325 28.2272 25.8325 27.1663C25.8325 26.1055 26.254 25.0881 27.0041 24.3379C27.7543 23.5878 28.7717 23.1663 29.8325 23.1663H41.8325V31.1663Z" fill="#FDF9FD"/>
<path id="Vector_2" d="M31.1797 29.167C32.2843 29.167 33.1797 28.2716 33.1797 27.167C33.1797 26.0624 32.2843 25.167 31.1797 25.167C30.0751 25.167 29.1797 26.0624 29.1797 27.167C29.1797 28.2716 30.0751 29.167 31.1797 29.167Z" fill="#908294"/>
</g>
</svg>
