<svg width="16" height="16" viewBox="0 0 16 16" fill="none" xmlns="http://www.w3.org/2000/svg">
<g id="arrow-up-from-square">
<path id="Icon" d="M10 4L8 2M8 2L6 4M8 2V10M11.3333 6H11.8667C12.6134 6 12.9868 6 13.272 6.14532C13.5229 6.27316 13.7268 6.47713 13.8547 6.72801C14 7.01323 14 7.3866 14 8.13333V11.8667C14 12.6134 14 12.9868 13.8547 13.272C13.7268 13.5229 13.5229 13.7268 13.272 13.8547C12.9868 14 12.6134 14 11.8667 14H4.13333C3.3866 14 3.01323 14 2.72801 13.8547C2.47713 13.7268 2.27316 13.5229 2.14532 13.272C2 12.9868 2 12.6134 2 11.8667V8.13333C2 7.3866 2 7.01323 2.14532 6.72801C2.27316 6.47713 2.47713 6.27316 2.72801 6.14532C3.01323 6 3.3866 6 4.13333 6H4.66667" stroke="white" stroke-width="2" stroke-linecap="round" stroke-linejoin="round"/>
</g>
</svg>
