<svg width="24" height="24" viewBox="0 0 24 24" fill="none" xmlns="http://www.w3.org/2000/svg">
<circle cx="12" cy="12" r="12" fill="#2F80ED"/>
<path d="M16.1585 8.07803C15.3937 7.72709 14.5735 7.46853 13.7159 7.32045C13.7003 7.31759 13.6847 7.32473 13.6767 7.33901C13.5712 7.52662 13.4544 7.77137 13.3725 7.96374C12.4502 7.82566 11.5326 7.82566 10.6292 7.96374C10.5473 7.7671 10.4262 7.52662 10.3203 7.33901C10.3122 7.32521 10.2966 7.31806 10.281 7.32045C9.42395 7.46806 8.60378 7.72662 7.83847 8.07803C7.83184 8.08089 7.82616 8.08565 7.82239 8.09184C6.2667 10.416 5.84052 12.6831 6.04959 14.922C6.05054 14.933 6.05668 14.9435 6.0652 14.9501C7.0916 15.7039 8.08585 16.1615 9.06164 16.4648C9.07726 16.4696 9.0938 16.4639 9.10374 16.451C9.33456 16.1358 9.54032 15.8034 9.71674 15.4539C9.72715 15.4334 9.71721 15.4091 9.69593 15.401C9.36957 15.2772 9.0588 15.1263 8.75986 14.9549C8.73622 14.9411 8.73433 14.9072 8.75608 14.8911C8.81899 14.8439 8.88191 14.7949 8.94198 14.7453C8.95285 14.7363 8.96799 14.7344 8.98077 14.7401C10.9446 15.6367 13.0708 15.6367 15.0115 14.7401C15.0243 14.7339 15.0394 14.7358 15.0507 14.7449C15.1108 14.7944 15.1737 14.8439 15.2371 14.8911C15.2589 14.9072 15.2574 14.9411 15.2338 14.9549C14.9349 15.1296 14.6241 15.2772 14.2973 15.4006C14.276 15.4087 14.2665 15.4334 14.2769 15.4539C14.4571 15.8029 14.6629 16.1353 14.8894 16.4505C14.8989 16.4639 14.9159 16.4696 14.9315 16.4648C15.9121 16.1615 16.9063 15.7039 17.9327 14.9501C17.9417 14.9435 17.9474 14.9334 17.9483 14.9225C18.1985 12.334 17.5292 10.0856 16.1741 8.09231C16.1708 8.08565 16.1651 8.08089 16.1585 8.07803ZM10.01 13.5587C9.41875 13.5587 8.93157 13.0159 8.93157 12.3493C8.93157 11.6826 9.4093 11.1398 10.01 11.1398C10.6154 11.1398 11.0979 11.6874 11.0884 12.3493C11.0884 13.0159 10.6107 13.5587 10.01 13.5587ZM13.9974 13.5587C13.4061 13.5587 12.9189 13.0159 12.9189 12.3493C12.9189 11.6826 13.3967 11.1398 13.9974 11.1398C14.6028 11.1398 15.0853 11.6874 15.0758 12.3493C15.0758 13.0159 14.6028 13.5587 13.9974 13.5587Z" fill="white"/>
</svg>
