<svg width="159" height="240" viewBox="0 0 159 240" fill="none" xmlns="http://www.w3.org/2000/svg">
<g id="Group 1261157784">
<path id="Vector" d="M127.235 239.169C126.378 239.169 125.659 238.775 125.659 238.287C125.659 237.798 126.35 237.388 127.207 237.388C129.335 237.372 131.38 237.309 133.287 237.199C134.172 237.152 134.918 237.499 135.028 237.987C135.111 238.476 134.503 238.917 133.647 238.98C131.657 239.091 129.501 239.154 127.235 239.169C127.262 239.169 127.262 239.169 127.235 239.169ZM120.989 239.059C120.961 239.059 120.906 239.059 120.878 239.059C118.861 238.98 116.732 238.87 114.549 238.712C113.692 238.649 113.084 238.208 113.195 237.703C113.305 237.215 114.107 236.868 114.964 236.931C117.064 237.089 119.137 237.199 121.099 237.278C121.956 237.309 122.619 237.735 122.564 238.224C122.509 238.697 121.818 239.059 120.989 239.059ZM139.644 238.366C138.925 238.366 138.29 238.098 138.124 237.688C137.93 237.215 138.428 236.726 139.285 236.6C141.33 236.316 143.237 235.938 144.895 235.497C145.697 235.292 146.609 235.481 146.968 235.938C147.327 236.379 146.996 236.915 146.194 237.12C144.342 237.609 142.242 238.019 140.003 238.334C139.92 238.35 139.782 238.366 139.644 238.366ZM108.579 238.161C108.496 238.161 108.386 238.161 108.303 238.145C106.285 237.94 104.213 237.703 102.112 237.435C101.255 237.325 100.73 236.852 100.924 236.364C101.117 235.875 101.946 235.591 102.803 235.686C104.876 235.954 106.893 236.19 108.883 236.379C109.74 236.474 110.293 236.931 110.155 237.42C109.989 237.861 109.326 238.161 108.579 238.161ZM96.3635 236.616C96.2254 236.616 96.0872 236.6 95.949 236.584C93.9591 236.285 91.9415 235.954 89.8687 235.607C89.0396 235.465 88.5697 234.961 88.8185 234.488C89.0672 234.015 89.924 233.747 90.7808 233.889C92.7983 234.236 94.7882 234.551 96.7505 234.85C97.5796 234.976 98.0771 235.465 97.856 235.938C97.6901 236.348 97.0545 236.616 96.3635 236.616ZM150.81 235.292C150.367 235.292 149.925 235.181 149.621 234.992C149.041 234.614 149.124 234.046 149.759 233.731C151.224 233.006 152.413 232.155 153.297 231.225C153.711 230.783 154.651 230.626 155.425 230.862C156.199 231.099 156.475 231.635 156.061 232.076C155.01 233.211 153.573 234.22 151.805 235.087C151.556 235.213 151.169 235.292 150.81 235.292ZM84.3689 234.567C84.203 234.567 84.0372 234.551 83.8714 234.519C81.9091 234.141 79.9192 233.747 77.9293 233.337C77.1002 233.164 76.6856 232.659 76.9896 232.186C77.2936 231.713 78.2057 231.477 79.0071 231.65C80.9971 232.06 82.9317 232.454 84.8663 232.817C85.6954 232.974 86.1376 233.479 85.8613 233.952C85.6402 234.33 85.0322 234.567 84.3689 234.567ZM72.5952 232.139C72.4018 232.139 72.2083 232.123 72.0149 232.076C70.0802 231.65 68.1456 231.193 66.1833 230.72C65.3818 230.531 65.0226 230.011 65.3542 229.554C65.6859 229.097 66.5979 228.892 67.3994 229.081C69.334 229.554 71.2686 229.995 73.148 230.421C73.9495 230.594 74.364 231.114 74.0324 231.587C73.8113 231.918 73.2033 232.139 72.5952 232.139ZM61.0427 229.365C60.8216 229.365 60.6005 229.333 60.4071 229.286C58.5277 228.797 56.6207 228.309 54.6861 227.788C53.9123 227.583 53.553 227.048 53.9399 226.59C54.2992 226.149 55.2389 225.944 56.0403 226.165C57.9473 226.669 59.8267 227.174 61.706 227.647C62.5075 227.851 62.8668 228.372 62.5075 228.829C62.2312 229.176 61.6508 229.365 61.0427 229.365ZM156.641 229.144C156.558 229.144 156.475 229.144 156.392 229.128C155.536 229.049 154.955 228.592 155.066 228.104C155.232 227.52 155.287 226.906 155.287 226.275C155.287 225.786 155.232 225.282 155.149 224.778C155.066 224.289 155.701 223.848 156.558 223.8C157.415 223.737 158.189 224.116 158.272 224.604C158.382 225.172 158.438 225.739 158.438 226.291C158.438 227.016 158.355 227.725 158.161 228.387C158.078 228.829 157.387 229.144 156.641 229.144ZM49.7113 226.322C49.4626 226.322 49.2415 226.291 49.0204 226.228C47.1687 225.692 45.2893 225.156 43.41 224.604C42.6361 224.368 42.3321 223.832 42.7467 223.39C43.1612 222.949 44.1009 222.776 44.8748 223.012C46.7265 223.564 48.5782 224.1 50.4299 224.62C51.2038 224.841 51.5354 225.377 51.1485 225.818C50.8445 226.149 50.2917 226.322 49.7113 226.322ZM38.6287 223.012C38.3799 223.012 38.1312 222.981 37.8825 222.902C36.0584 222.334 34.2343 221.751 32.3826 221.152C31.6364 220.9 31.36 220.364 31.8022 219.923C32.2444 219.497 33.1841 219.339 33.9579 219.592C35.782 220.191 37.5785 220.758 39.4025 221.325C40.1764 221.562 40.4528 222.114 40.0382 222.539C39.7066 222.855 39.1814 223.012 38.6287 223.012ZM155.563 222.082C154.872 222.082 154.237 221.83 154.043 221.42C153.546 220.38 152.882 219.276 152.081 218.141C151.749 217.684 152.136 217.164 152.938 216.975C153.739 216.786 154.651 217.006 154.983 217.463C155.84 218.661 156.531 219.828 157.083 220.931C157.304 221.404 156.835 221.909 155.978 222.035C155.84 222.082 155.701 222.082 155.563 222.082ZM27.7395 219.481C27.4631 219.481 27.1867 219.434 26.938 219.355C25.1416 218.756 23.3728 218.126 21.5763 217.495C20.8301 217.243 20.609 216.691 21.0788 216.266C21.521 215.84 22.4884 215.714 23.2346 215.982C25.0034 216.612 26.7998 217.227 28.5686 217.826C29.3148 218.078 29.5636 218.63 29.1214 219.056C28.8174 219.324 28.2922 219.481 27.7395 219.481ZM17.099 215.714C16.795 215.714 16.5186 215.666 16.2423 215.572C14.5011 214.926 12.7323 214.279 10.9911 213.602C10.2726 213.334 10.0791 212.766 10.5489 212.356C11.0188 211.946 12.0137 211.836 12.7323 212.104C14.4735 212.766 16.2146 213.412 17.9558 214.059C18.6744 214.327 18.8955 214.878 18.4256 215.304C18.1216 215.572 17.6241 215.714 17.099 215.714ZM150.92 215.477C150.34 215.477 149.787 215.304 149.511 214.989C148.626 213.98 147.631 212.955 146.553 211.915C146.111 211.489 146.36 210.938 147.106 210.685C147.852 210.433 148.82 210.575 149.262 211.001C150.367 212.072 151.418 213.144 152.33 214.185C152.717 214.626 152.413 215.162 151.639 215.383C151.418 215.446 151.169 215.477 150.92 215.477ZM6.67967 211.757C6.37566 211.757 6.07165 211.71 5.79527 211.6C4.08174 210.922 2.36821 210.244 0.654684 209.535C-0.0638921 209.251 -0.20208 208.683 0.295396 208.289C0.792872 207.879 1.78782 207.801 2.47876 208.084C4.19229 208.778 5.87818 209.456 7.59171 210.134C8.31029 210.417 8.47611 210.969 7.97864 211.379C7.67462 211.615 7.17715 211.757 6.67967 211.757ZM144.591 209.314C144.094 209.314 143.568 209.172 143.292 208.92C142.187 207.974 141.026 207.012 139.755 206.019C139.257 205.625 139.395 205.058 140.114 204.774C140.805 204.475 141.8 204.569 142.297 204.979C143.568 205.988 144.785 206.981 145.89 207.943C146.36 208.352 146.166 208.904 145.448 209.188C145.171 209.267 144.867 209.314 144.591 209.314ZM137.267 203.529C136.797 203.529 136.327 203.403 136.023 203.182L132.182 200.36C131.657 199.966 131.767 199.415 132.458 199.099C133.149 198.8 134.144 198.863 134.669 199.257L138.511 202.079C139.036 202.473 138.925 203.04 138.234 203.34C137.93 203.466 137.599 203.529 137.267 203.529ZM129.584 197.886C129.114 197.886 128.644 197.76 128.34 197.539L124.499 194.717C123.973 194.323 124.084 193.771 124.775 193.456C125.466 193.157 126.461 193.22 126.986 193.614L130.828 196.435C131.353 196.829 131.242 197.397 130.551 197.696C130.275 197.823 129.916 197.886 129.584 197.886ZM121.901 192.258C121.431 192.258 120.961 192.132 120.657 191.911L116.815 189.09C116.29 188.696 116.401 188.144 117.092 187.829C117.783 187.529 118.75 187.592 119.303 187.986L123.144 190.808C123.669 191.202 123.559 191.754 122.868 192.069C122.564 192.195 122.232 192.258 121.901 192.258ZM114.217 186.615C113.748 186.615 113.278 186.489 112.974 186.268L109.132 183.447C108.607 183.052 108.718 182.501 109.408 182.185C110.099 181.886 111.067 181.949 111.619 182.343L115.461 185.165C115.986 185.559 115.876 186.111 115.185 186.426C114.881 186.552 114.549 186.615 114.217 186.615ZM106.534 180.987C106.064 180.987 105.594 180.861 105.29 180.641L101.449 177.819C100.924 177.425 101.034 176.857 101.725 176.558C102.416 176.258 103.411 176.322 103.936 176.716L107.778 179.537C108.303 179.931 108.192 180.499 107.501 180.798C107.197 180.924 106.866 180.987 106.534 180.987ZM98.8509 175.344C98.3811 175.344 97.9112 175.218 97.6072 174.997L93.7932 172.176C93.2681 171.782 93.4063 171.214 94.0696 170.915C94.7606 170.615 95.7555 170.694 96.2806 171.072L100.095 173.894C100.62 174.288 100.509 174.856 99.8182 175.155C99.5142 175.281 99.1826 175.344 98.8509 175.344ZM91.223 169.685C90.7531 169.685 90.2833 169.559 89.9793 169.338C88.7079 168.393 87.4366 167.447 86.1653 166.501C85.6402 166.107 85.7784 165.54 86.4693 165.24C87.1602 164.941 88.1552 165.019 88.6803 165.413C89.924 166.343 91.1953 167.289 92.4667 168.251C92.9918 168.645 92.8536 169.212 92.1626 169.512C91.8863 169.622 91.5546 169.685 91.223 169.685ZM83.6226 164.01C83.1528 164.01 82.683 163.884 82.3789 163.664C81.1076 162.702 79.8363 161.756 78.5926 160.811C78.0675 160.416 78.2057 159.849 78.8966 159.55C79.5875 159.25 80.5825 159.329 81.1076 159.723C82.3513 160.669 83.595 161.614 84.8663 162.576C85.3914 162.97 85.2532 163.538 84.5623 163.837C84.2859 163.947 83.9543 164.01 83.6226 164.01ZM76.1052 158.304C75.6354 158.304 75.1655 158.178 74.8339 157.942C73.5626 156.98 72.3189 156.019 71.1028 155.073C70.5777 154.679 70.7435 154.111 71.4345 153.812C72.1254 153.512 73.1204 153.607 73.6455 154.001C74.8615 154.947 76.1052 155.908 77.3765 156.87C77.9016 157.264 77.7635 157.831 77.0449 158.131C76.7409 158.241 76.4369 158.304 76.1052 158.304ZM68.6707 152.551C68.1732 152.551 67.7034 152.425 67.3994 152.188C66.1557 151.211 64.9396 150.249 63.7236 149.288C63.2261 148.878 63.3643 148.326 64.0829 148.042C64.8014 147.759 65.7688 147.837 66.2662 148.247C67.4823 149.209 68.6983 150.17 69.942 151.132C70.4395 151.526 70.3013 152.094 69.5827 152.377C69.3064 152.503 68.9747 152.551 68.6707 152.551ZM61.3744 146.75C60.8769 146.75 60.4071 146.624 60.1031 146.371C58.887 145.394 57.671 144.417 56.5102 143.439C56.0127 143.03 56.1785 142.478 56.8971 142.194C57.6157 141.91 58.583 142.005 59.0805 142.415C60.2689 143.376 61.4573 144.354 62.6734 145.331C63.1708 145.741 63.005 146.293 62.2864 146.576C61.9824 146.702 61.6784 146.75 61.3744 146.75ZM54.2163 140.886C53.7188 140.886 53.2213 140.744 52.9173 140.492C51.7289 139.499 50.5681 138.506 49.4073 137.528C48.9375 137.118 49.131 136.567 49.8495 136.283C50.5681 136.015 51.5354 136.125 52.0329 136.535C53.166 137.513 54.3268 138.49 55.5152 139.483C56.0127 139.893 55.8192 140.445 55.1007 140.728C54.8243 140.839 54.5203 140.886 54.2163 140.886ZM47.2792 134.943C46.7541 134.943 46.2566 134.801 45.9526 134.533C44.7919 133.524 43.6864 132.516 42.5809 131.523C42.111 131.097 42.3321 130.545 43.0783 130.293C43.8245 130.025 44.7919 130.151 45.2341 130.577C46.3396 131.57 47.4451 132.563 48.5782 133.572C49.048 133.982 48.8546 134.549 48.1084 134.817C47.8596 134.896 47.5833 134.943 47.2792 134.943ZM40.6186 128.906C40.0935 128.906 39.5684 128.748 39.2644 128.48C38.1588 127.44 37.081 126.415 36.0584 125.406C35.6162 124.981 35.8649 124.429 36.6111 124.177C37.3574 123.925 38.3247 124.067 38.7669 124.492C39.7895 125.501 40.8673 126.526 41.9452 127.55C42.3874 127.976 42.1663 128.528 41.4201 128.78C41.1713 128.859 40.895 128.906 40.6186 128.906ZM34.3172 122.742C33.7645 122.742 33.2394 122.569 32.9354 122.285C31.9128 121.229 30.8902 120.173 29.9229 119.133C29.5083 118.691 29.8123 118.155 30.5862 117.919C31.36 117.682 32.2997 117.856 32.7143 118.297C33.6816 119.322 34.6489 120.362 35.6715 121.418C36.086 121.844 35.8097 122.396 35.0634 122.632C34.8423 122.695 34.566 122.742 34.3172 122.742ZM28.4857 116.421C27.9053 116.421 27.3526 116.232 27.0762 115.917C26.1365 114.829 25.2245 113.742 24.3677 112.67C24.0084 112.213 24.3401 111.692 25.1416 111.488C25.9431 111.283 26.8551 111.472 27.2144 111.929C28.0711 112.985 28.9555 114.057 29.8952 115.129C30.2821 115.57 29.9505 116.106 29.1766 116.327C28.9555 116.39 28.7344 116.421 28.4857 116.421ZM23.2898 109.927C22.6818 109.927 22.1014 109.722 21.8527 109.375C21.0236 108.24 20.2497 107.137 19.5311 106.018C19.2271 105.561 19.6417 105.04 20.4432 104.867C21.2723 104.694 22.1567 104.93 22.4607 105.387C23.1793 106.475 23.9255 107.562 24.727 108.666C25.0586 109.123 24.6717 109.643 23.8702 109.832C23.7044 109.911 23.4833 109.927 23.2898 109.927ZM18.9507 103.243C18.2874 103.243 17.6794 103.007 17.4583 102.629C16.795 101.462 16.187 100.296 15.6619 99.1607C15.4408 98.6878 15.9383 98.1991 16.7674 98.0573C17.6241 97.9312 18.4533 98.2149 18.702 98.6878C19.2271 99.7912 19.8075 100.926 20.4432 102.061C20.7196 102.534 20.2497 103.038 19.4206 103.196C19.2548 103.228 19.1166 103.243 18.9507 103.243ZM15.7172 96.3391C14.9986 96.3391 14.3353 96.0553 14.1694 95.6297C13.7272 94.4317 13.368 93.2337 13.0639 92.0672C12.9534 91.5786 13.5338 91.1215 14.3905 91.0584C15.2473 90.9796 16.0488 91.3264 16.1594 91.815C16.4357 92.95 16.795 94.1165 17.2096 95.2672C17.3754 95.7558 16.8503 96.2287 15.9935 96.3233C15.9383 96.3391 15.8277 96.3391 15.7172 96.3391ZM13.976 89.2929C13.1469 89.2929 12.4559 88.9304 12.4006 88.4575C12.2625 87.354 12.2072 86.2506 12.2072 85.163V84.8162C12.2072 84.3275 12.9258 83.9334 13.7825 83.9334C13.7825 83.9334 13.7825 83.9334 13.8102 83.9334C14.6669 83.9334 15.3855 84.3433 15.3579 84.8319V85.163C15.3579 86.2033 15.4131 87.2595 15.5513 88.3314C15.6066 88.82 14.9709 89.2614 14.0865 89.2929C14.0589 89.2929 14.0313 89.2929 13.976 89.2929ZM14.0865 82.168C14.0313 82.168 14.0036 82.168 13.9483 82.168C13.0916 82.1207 12.4559 81.6951 12.5388 81.1906C12.7323 79.9926 13.0087 78.7631 13.3956 77.5809C13.5614 77.0922 14.3905 76.7769 15.2197 76.8558C16.0764 76.9346 16.6292 77.4075 16.491 77.8961C16.1317 79.0468 15.8553 80.1975 15.6895 81.364C15.579 81.8054 14.888 82.168 14.0865 82.168ZM16.2975 75.1376C16.1594 75.1376 16.0212 75.1218 15.883 75.106C15.0539 74.9799 14.5564 74.4913 14.7775 74.0026C15.3302 72.8361 15.9659 71.6697 16.6845 70.5347C16.9885 70.0618 17.8729 69.8254 18.702 69.9988C19.5311 70.1722 19.9457 70.6766 19.6417 71.1495C18.9507 72.2529 18.3151 73.3721 17.79 74.4755C17.6241 74.8853 16.9885 75.1376 16.2975 75.1376ZM20.5261 68.4382C20.305 68.4382 20.0839 68.4067 19.8628 68.3594C19.0613 68.1545 18.7296 67.6185 19.0889 67.1771C19.9457 66.0895 20.913 65.0018 21.9632 63.9299C22.3778 63.4886 23.3175 63.3309 24.0913 63.5831C24.8375 63.8196 25.1139 64.3713 24.6994 64.7969C23.7044 65.8373 22.7647 66.8776 21.9356 67.918C21.6869 68.249 21.1341 68.4382 20.5261 68.4382ZM26.5787 62.196C26.2747 62.196 25.9983 62.1487 25.7219 62.0541C25.0034 61.7861 24.7823 61.2344 25.2521 60.8088C26.3853 59.8157 27.6013 58.8069 28.8726 57.8296C29.3701 57.4355 30.3651 57.3409 31.056 57.6404C31.7469 57.9399 31.9128 58.4916 31.3876 58.8857C30.144 59.8315 28.9832 60.8088 27.8777 61.7704C27.5737 62.0541 27.0762 62.196 26.5787 62.196ZM33.9856 56.4424C33.6263 56.4424 33.267 56.3794 32.9906 56.2375C32.3273 55.9222 32.2168 55.3547 32.7972 54.9764C34.0961 54.0779 35.5056 53.1637 36.9704 52.2494C37.5508 51.8868 38.5458 51.8553 39.1814 52.2021C39.8171 52.5331 39.8724 53.1006 39.292 53.4632C37.8548 54.3459 36.5006 55.2444 35.2293 56.1114C34.8976 56.3321 34.4278 56.4424 33.9856 56.4424ZM42.4427 51.1775C42.0281 51.1775 41.6412 51.0829 41.3372 50.9095C40.7291 50.5627 40.7291 49.9953 41.3372 49.6485C42.802 48.813 44.322 47.9933 45.8974 47.1579C46.533 46.8269 47.528 46.8426 48.1084 47.2052C48.6888 47.5677 48.6611 48.1352 48.0255 48.4662C46.4777 49.2859 44.9853 50.0898 43.5482 50.9095C43.2442 51.0987 42.8296 51.1775 42.4427 51.1775Z" fill="url(#paint0_linear_437_2941)"/>
<g id="Group 1261157783">
<path id="Vector_2" d="M109.861 0.181641L45.6094 30.3677L51.7149 50.0091L109.861 0.181641Z" fill="url(#paint1_linear_437_2941)"/>
<path id="Vector_3" d="M109.862 0.181641L45.6107 30.3677L34.9158 31.1053L28.5781 25.2456L109.862 0.181641Z" fill="url(#paint2_linear_437_2941)"/>
<path id="Vector_4" d="M109.857 0.181641L57.8028 37.4566L51.7109 50.0091L109.857 0.181641Z" fill="url(#paint3_linear_437_2941)"/>
<path id="Vector_5" d="M109.866 0.181641L57.8125 37.4566L65.9259 46.4032L75.8968 50.0364L109.866 0.181641Z" fill="url(#paint4_linear_437_2941)"/>
</g>
<circle id="Ellipse 2123" cx="77.0034" cy="139.941" r="67.1284" fill="url(#paint5_linear_437_2941)"/>
<g id="Ellipse 2124" filter="url(#filter0_d_437_2941)">
<circle cx="77.0019" cy="139.94" r="45.1191" fill="url(#paint6_linear_437_2941)"/>
</g>
<path id="Vector 1580" d="M57.1875 141.414L69.3607 153.146L97.9047 125.635" stroke="#F7F7FC" stroke-width="4" stroke-linecap="round" stroke-linejoin="round"/>
</g>
<defs>
<filter id="filter0_d_437_2941" x="27.8828" y="94.8213" width="98.2344" height="98.2383" filterUnits="userSpaceOnUse" color-interpolation-filters="sRGB">
<feFlood flood-opacity="0" result="BackgroundImageFix"/>
<feColorMatrix in="SourceAlpha" type="matrix" values="0 0 0 0 0 0 0 0 0 0 0 0 0 0 0 0 0 0 127 0" result="hardAlpha"/>
<feOffset dy="4"/>
<feGaussianBlur stdDeviation="2"/>
<feComposite in2="hardAlpha" operator="out"/>
<feColorMatrix type="matrix" values="0 0 0 0 0.168627 0 0 0 0 0.529412 0 0 0 0 0.913725 0 0 0 0.25 0"/>
<feBlend mode="normal" in2="BackgroundImageFix" result="effect1_dropShadow_437_2941"/>
<feBlend mode="normal" in="SourceGraphic" in2="effect1_dropShadow_437_2941" result="shape"/>
</filter>
<linearGradient id="paint0_linear_437_2941" x1="150.614" y1="21.3682" x2="118.006" y2="224.296" gradientUnits="userSpaceOnUse">
<stop offset="0.0151515" stop-color="white"/>
<stop offset="1" stop-color="white" stop-opacity="0"/>
</linearGradient>
<linearGradient id="paint1_linear_437_2941" x1="40.9098" y1="5.28823" x2="97.7629" y2="33.5289" gradientUnits="userSpaceOnUse">
<stop offset="0.171875" stop-color="#4ED5D2"/>
<stop offset="0.828125" stop-color="#00A9FF"/>
</linearGradient>
<linearGradient id="paint2_linear_437_2941" x1="-74.6804" y1="53.23" x2="100.539" y2="9.59736" gradientUnits="userSpaceOnUse">
<stop stop-color="#4ED5D2"/>
<stop offset="1" stop-color="#2F80ED"/>
</linearGradient>
<linearGradient id="paint3_linear_437_2941" x1="53.4095" y1="28.8664" x2="80.8428" y2="25.0855" gradientUnits="userSpaceOnUse">
<stop offset="0.1414" stop-color="#4ED5D2"/>
<stop offset="1" stop-color="#2F80ED"/>
</linearGradient>
<linearGradient id="paint4_linear_437_2941" x1="63.647" y1="100.927" x2="86.929" y2="6.24666" gradientUnits="userSpaceOnUse">
<stop stop-color="#00C7C5"/>
<stop offset="1" stop-color="#2F80ED"/>
</linearGradient>
<linearGradient id="paint5_linear_437_2941" x1="77.0034" y1="72.8125" x2="77.0034" y2="207.069" gradientUnits="userSpaceOnUse">
<stop stop-color="#00A9FF"/>
<stop offset="1" stop-color="#2F80ED"/>
</linearGradient>
<linearGradient id="paint6_linear_437_2941" x1="30.5" y1="100" x2="122" y2="182" gradientUnits="userSpaceOnUse">
<stop stop-color="#2F80ED"/>
<stop offset="1" stop-color="#00A9FF"/>
</linearGradient>
</defs>
</svg>
