<svg width="30" height="30" viewBox="0 0 30 30" fill="none" xmlns="http://www.w3.org/2000/svg">
<circle cx="15" cy="15" r="15" fill="#2F80ED"/>
<g clip-path="url(#clip0_196_5825)">
<path d="M20.1981 10.0972C19.2421 9.6585 18.2169 9.3353 17.1449 9.15019C17.1254 9.14662 17.1059 9.15555 17.0959 9.1734C16.964 9.40791 16.818 9.71385 16.7157 9.95431C15.5628 9.78171 14.4157 9.78171 13.2865 9.95431C13.1842 9.7085 13.0328 9.40791 12.9004 9.1734C12.8903 9.15614 12.8708 9.14721 12.8513 9.15019C11.7799 9.33471 10.7547 9.6579 9.79808 10.0972C9.7898 10.1007 9.7827 10.1067 9.77799 10.1144C7.83337 13.0197 7.30066 15.8535 7.56199 18.6522C7.56317 18.6658 7.57086 18.6789 7.5815 18.6873C8.86451 19.6295 10.1073 20.2015 11.327 20.5806C11.3466 20.5866 11.3673 20.5794 11.3797 20.5634C11.6682 20.1694 11.9254 19.7539 12.1459 19.317C12.1589 19.2914 12.1465 19.2611 12.1199 19.2509C11.712 19.0962 11.3235 18.9075 10.9498 18.6932C10.9203 18.676 10.9179 18.6337 10.9451 18.6135C11.0237 18.5545 11.1024 18.4932 11.1775 18.4313C11.1911 18.42 11.21 18.4176 11.226 18.4248C13.6808 19.5456 16.3385 19.5456 18.7643 18.4248C18.7803 18.417 18.7992 18.4194 18.8134 18.4307C18.8885 18.4926 18.9672 18.5545 19.0464 18.6135C19.0736 18.6337 19.0718 18.676 19.0422 18.6932C18.6686 18.9117 18.2801 19.0962 17.8716 19.2503C17.845 19.2605 17.8331 19.2914 17.8462 19.317C18.0714 19.7533 18.3286 20.1687 18.6118 20.5628C18.6236 20.5794 18.6449 20.5866 18.6644 20.5806C19.8901 20.2015 21.1329 19.6295 22.4159 18.6873C22.4271 18.6789 22.4342 18.6664 22.4354 18.6528C22.7482 15.4172 21.9116 12.6066 20.2176 10.115C20.2135 10.1067 20.2064 10.1007 20.1981 10.0972ZM12.5125 16.9481C11.7734 16.9481 11.1645 16.2695 11.1645 15.4362C11.1645 14.6029 11.7616 13.9244 12.5125 13.9244C13.2693 13.9244 13.8724 14.6089 13.8605 15.4362C13.8605 16.2695 13.2634 16.9481 12.5125 16.9481ZM17.4967 16.9481C16.7577 16.9481 16.1487 16.2695 16.1487 15.4362C16.1487 14.6029 16.7458 13.9244 17.4967 13.9244C18.2535 13.9244 18.8566 14.6089 18.8448 15.4362C18.8448 16.2695 18.2535 16.9481 17.4967 16.9481Z" fill="white"/>
</g>
<defs>
<clipPath id="clip0_196_5825">
<rect width="15" height="15" fill="white" transform="translate(7.5 7.5)"/>
</clipPath>
</defs>
</svg>
