<svg width="212" height="60" viewBox="0 0 212 60" fill="none" xmlns="http://www.w3.org/2000/svg">
<path d="M73.2422 28.2096V28.152C73.2422 22.5357 77.5749 17.8359 83.7046 17.8359C89.8343 17.8359 94.1022 22.4782 94.1022 28.0944V28.152C94.1022 33.7683 89.7695 38.4681 83.6398 38.4681C77.5102 38.4681 73.2422 33.8162 73.2422 28.2096ZM90.434 28.2096V28.152C90.434 24.2751 87.6127 21.0531 83.6494 21.0531C79.6861 21.0531 76.92 24.2199 76.92 28.0944V28.152C76.92 32.0289 79.7437 35.2509 83.7046 35.2509C87.6655 35.2509 90.434 32.0865 90.434 28.2096Z" fill="white"/>
<path d="M97.9609 23.078H101.411V25.585C102.522 24.0184 104.091 22.7637 106.514 22.7637C110.079 22.7637 113.529 25.585 113.529 30.5751V30.6327C113.529 35.6228 110.105 38.4441 106.514 38.4441C104.033 38.4441 102.464 37.1894 101.411 35.8051V42.6929H97.9609V23.078ZM110.021 30.6327V30.5751C110.021 27.6674 108.054 25.7577 105.703 25.7577C103.352 25.7577 101.312 27.6962 101.312 30.5751V30.6327C101.312 33.5404 103.366 35.45 105.703 35.45C108.039 35.45 110.021 33.5979 110.021 30.6327Z" fill="white"/>
<path d="M116.234 30.6615V30.6039C116.234 26.2999 119.286 22.7637 123.59 22.7637C128.388 22.7637 130.804 26.5278 130.804 30.8606C130.804 31.1749 130.775 31.4891 130.746 31.8202H119.684C120.056 34.2721 121.793 35.642 124.017 35.642C125.696 35.642 126.896 35.0134 128.095 33.845L130.12 35.642C128.695 37.3525 126.728 38.4633 123.962 38.4633C119.598 38.4729 116.234 35.3085 116.234 30.6615ZM127.383 29.5483C127.143 27.3243 125.843 25.585 123.561 25.585C121.452 25.585 119.963 27.2116 119.655 29.5483H127.383Z" fill="white"/>
<path d="M134.281 23.078H137.731V25.4195C138.691 23.9945 140.099 22.7686 142.436 22.7686C145.828 22.7686 147.795 25.0501 147.795 28.5551V38.1347H144.345V29.5772C144.345 27.2404 143.177 25.8994 141.123 25.8994C139.127 25.8994 137.731 27.298 137.731 29.6347V38.1347H134.281V23.078Z" fill="white"/>
<path d="M151.555 18.1746H167.513V23.0207H157.077V26.413H166.515V31.0025H157.087V38.1349H151.555V18.1746Z" fill="white"/>
<path d="M169.828 17.3176H175.245V38.1345H169.828V17.3176Z" fill="white"/>
<path d="M178.156 32.7992V22.7063H183.573V31.0599C183.573 32.7393 184.456 33.6557 185.769 33.6557C187.081 33.6557 188.021 32.7417 188.021 31.0599V22.7063H193.438V38.1348H188.021V36.0236C187.023 37.3071 185.596 38.4755 183.401 38.4755C180.123 38.4731 178.156 36.3067 178.156 32.7992Z" fill="white"/>
<path d="M200.306 30.3474L195.204 22.7063H201.048L203.329 26.4993L205.611 22.7063H211.34L206.266 30.3186L211.455 38.1348H205.637L203.238 34.1715L200.82 38.1348H195.117L200.306 30.3474Z" fill="white"/>
<path d="M49.0686 11.3609C47.2455 7.93766 44.5278 5.07309 41.2052 3.07242C37.8825 1.07174 34.0794 0.00991734 30.2009 6.91334e-05C26.3225 -0.00977907 22.514 1.03272 19.1812 3.0165C15.8485 5.00027 13.1163 7.851 11.2758 11.265C7.8588 13.0907 5.00369 15.8127 3.0171 19.1388C1.03051 22.4648 -0.0124877 26.2692 0.000112832 30.1434C0.0160905 34.0567 1.09616 37.892 3.12466 41.2387C5.15316 44.5853 8.05371 47.3171 11.5157 49.1417C13.383 52.4401 16.0928 55.1835 19.368 57.0913C22.6432 58.9991 26.3663 60.0028 30.1566 60C33.9588 60.0055 37.6937 58.997 40.9763 57.0782C44.2588 55.1594 46.9703 52.3999 48.8311 49.0841C52.2466 47.27 55.1078 44.5657 57.1114 41.2577C59.1151 37.9498 60.1866 34.1614 60.2124 30.2941C60.2382 26.4267 59.2174 22.6244 57.2581 19.29C55.2988 15.9556 52.474 13.2134 49.083 11.3537L49.0686 11.3609ZM30.0966 50.466C26.0479 50.467 22.0899 49.2672 18.7231 47.0185C15.3563 44.7698 12.732 41.5732 11.1821 37.8329C9.63218 34.0927 9.22628 29.9768 10.0157 26.0058C10.8052 22.0348 12.7545 18.3871 15.6172 15.5241C18.4799 12.6611 22.1273 10.7113 26.0982 9.92141C30.0691 9.13149 34.1851 9.53691 37.9255 11.0864C41.666 12.6359 44.8629 15.2598 47.112 18.6263C49.3611 21.9928 50.5613 25.9507 50.5608 29.9994C50.5618 32.6875 50.0331 35.3495 49.0052 37.8333C47.9772 40.3171 46.47 42.5741 44.5697 44.4753C42.6693 46.3765 40.4131 47.8848 37.9298 48.9139C35.4465 49.943 32.7847 50.4729 30.0966 50.4732V50.466Z" fill="url(#paint0_linear_775_3524)"/>
<defs>
<linearGradient id="paint0_linear_775_3524" x1="-0.00708442" y1="30.0066" x2="60.1979" y2="30.0066" gradientUnits="userSpaceOnUse">
<stop stop-color="#487FC1"/>
<stop offset="1" stop-color="#1CC3F2"/>
</linearGradient>
</defs>
</svg>
