<svg width="30" height="30" viewBox="0 0 30 30" fill="none" xmlns="http://www.w3.org/2000/svg">
<g id="Group 1261157349">
<circle id="Ellipse 2125" cx="15" cy="15" r="15" fill="#2F80ED"/>
<g id="Group 1000003463">
<g id="Group">
<path id="Vector" d="M15.0009 12.5098C13.6203 12.5098 12.5078 13.6297 12.5078 15.0112C12.5078 16.386 13.6337 17.5194 15.0076 17.5126C16.3747 17.5126 17.514 16.3726 17.5073 15.0045C17.5006 13.6364 16.3747 12.5098 15.0009 12.5098Z" fill="white"/>
<path id="Vector_2" d="M22.4181 11.4366C22.3175 10.0953 21.7546 8.98209 20.5885 8.23098C19.8714 7.77496 19.0739 7.60059 18.2362 7.55365C17.9949 7.54024 17.7536 7.52012 17.5124 7.5C15.8437 7.5 14.1749 7.5 12.4995 7.5C12.1041 7.53353 11.702 7.55365 11.3066 7.59389C9.22905 7.81519 7.81498 9.23022 7.59382 11.3159C7.55361 11.7115 7.52681 12.1139 7.5 12.5096C7.5 14.1794 7.5 15.8493 7.5 17.5259C7.54691 18.0154 7.56032 18.5117 7.64074 18.9878C7.98923 20.993 9.38989 22.3142 11.4272 22.4215C13.2099 22.5153 14.9925 22.5019 16.7819 22.4952C17.5392 22.4952 18.3099 22.4818 19.0471 22.3544C21.0107 22.0191 22.2907 20.5906 22.4114 18.5855C22.4985 17.1637 22.4918 15.7353 22.4985 14.3069C22.5052 13.3546 22.4918 12.3889 22.4181 11.4366ZM15.0126 18.8738C12.8882 18.8805 11.1524 17.1503 11.1524 15.0177C11.1524 12.8784 12.8614 11.1549 14.9992 11.1549C17.1304 11.1549 18.8594 12.8717 18.8661 15.0043C18.8661 17.1302 17.1371 18.8671 15.0126 18.8738ZM19.0203 11.906C18.5176 11.9127 18.1088 11.5104 18.1088 11.0074C18.1088 10.5111 18.4908 10.1154 18.9868 10.102C19.4961 10.0886 19.9049 10.4843 19.9116 10.9873C19.925 11.4835 19.5229 11.8993 19.0203 11.906Z" fill="white"/>
</g>
</g>
</g>
</svg>
