<svg width="41" height="40" viewBox="0 0 41 40" fill="none" xmlns="http://www.w3.org/2000/svg">
<g filter="url(#filter0_b_182_2613)">
<ellipse cx="20.1397" cy="20" rx="20.1397" ry="20" fill="url(#paint0_linear_182_2613)"/>
</g>
<path d="M30.9078 8.99512V12.5032C30.9078 16.5419 27.6641 19.8228 23.6381 19.8878L23.5159 19.8892H20.0047V23.4063C20.0047 27.5609 16.7065 30.8014 12.6428 30.8014H9.10156V27.1888V19.3349C9.10156 13.6244 13.7354 8.99512 19.4504 8.99512H30.9078Z" fill="white"/>
<path fill-rule="evenodd" clip-rule="evenodd" d="M26.226 8.99512H30.907V12.5032C30.907 16.6577 27.6088 19.8982 23.5451 19.8982H20.0039V16.2889C20.0039 12.6077 22.6992 9.55572 26.226 8.99512Z" fill="#242265" fill-opacity="0.8"/>
<path d="M30.9078 8.99512V12.5032C30.9078 16.5419 27.6641 19.8228 23.6381 19.8878L23.5159 19.8892H20.0047V23.4063C20.0047 27.5609 16.7065 30.8014 12.6428 30.8014H9.10156V27.1888V19.3349C9.10156 13.6244 13.7354 8.99512 19.4504 8.99512H30.9078Z" fill="#616EE1" fill-opacity="0.8"/>
<defs>
<filter id="filter0_b_182_2613" x="-20" y="-20" width="80.2812" height="80" filterUnits="userSpaceOnUse" color-interpolation-filters="sRGB">
<feFlood flood-opacity="0" result="BackgroundImageFix"/>
<feGaussianBlur in="BackgroundImageFix" stdDeviation="10"/>
<feComposite in2="SourceAlpha" operator="in" result="effect1_backgroundBlur_182_2613"/>
<feBlend mode="normal" in="SourceGraphic" in2="effect1_backgroundBlur_182_2613" result="shape"/>
</filter>
<linearGradient id="paint0_linear_182_2613" x1="0" y1="0" x2="29.3546" y2="46.8457" gradientUnits="userSpaceOnUse">
<stop stop-color="white" stop-opacity="0.1"/>
<stop offset="1" stop-color="white" stop-opacity="0.05"/>
</linearGradient>
</defs>
</svg>
