<svg width="24" height="24" viewBox="0 0 24 24" fill="none" xmlns="http://www.w3.org/2000/svg">
<g clip-path="url(#clip0_569_2936)">
<path d="M11.2484 21C11.2484 20.8011 11.3274 20.6103 11.4681 20.4697C11.6087 20.329 11.7995 20.25 11.9984 20.25C13.8848 20.25 15.7142 19.6036 17.1818 18.4184C18.6494 17.2332 19.6665 15.5809 20.0637 13.7367C20.4608 11.8926 20.2139 9.9681 19.3642 8.2839C18.5145 6.59971 17.1133 5.25757 15.3941 4.48116C13.6749 3.70475 11.7415 3.54097 9.91621 4.01711C8.09089 4.49324 6.48387 5.58054 5.36296 7.0978C4.24205 8.61505 3.67496 10.4706 3.7562 12.3553C3.83744 14.2399 4.5621 16.0398 5.80941 17.455V14.818C5.80941 14.6191 5.88842 14.4283 6.02908 14.2877C6.16973 14.147 6.36049 14.068 6.55941 14.068C6.75832 14.068 6.94908 14.147 7.08974 14.2877C7.23039 14.4283 7.30941 14.6191 7.30941 14.818V19.061C7.30941 19.1596 7.28997 19.2572 7.25222 19.3482C7.21447 19.4393 7.15913 19.522 7.08938 19.5917C7.01963 19.6613 6.93684 19.7165 6.84573 19.7542C6.75462 19.7918 6.65698 19.8111 6.55841 19.811H2.31641C2.11749 19.811 1.92673 19.732 1.78608 19.5913C1.64542 19.4507 1.56641 19.2599 1.56641 19.061C1.56641 18.8621 1.64542 18.6713 1.78608 18.5307C1.92673 18.39 2.11749 18.311 2.31641 18.311H4.56641C3.12863 16.6174 2.31235 14.4835 2.25271 12.2627C2.19307 10.0419 2.89365 7.86734 4.23846 6.099C5.58327 4.33066 7.49166 3.07461 9.64768 2.5388C11.8037 2.00299 14.0781 2.21956 16.0942 3.15264C18.1104 4.08572 19.7474 5.67936 20.7343 7.66972C21.7212 9.66008 21.9988 11.9278 21.5211 14.0974C21.0434 16.2671 19.8391 18.2085 18.1076 19.6004C16.376 20.9922 14.221 21.7509 11.9994 21.751C11.9007 21.7511 11.803 21.7318 11.7119 21.6941C11.6207 21.6564 11.5378 21.6011 11.4681 21.5313C11.3983 21.4616 11.343 21.3787 11.3053 21.2875C11.2676 21.1964 11.2483 21.0986 11.2484 21ZM14.1234 16.186L11.4664 13.531C11.3258 13.39 11.2468 13.1991 11.2464 13V7.79998C11.2464 7.60107 11.3254 7.41031 11.4661 7.26965C11.6067 7.129 11.7975 7.04998 11.9964 7.04998C12.1953 7.04998 12.3861 7.129 12.5267 7.26965C12.6674 7.41031 12.7464 7.60107 12.7464 7.79998V12.689L15.1824 15.125C15.254 15.1942 15.3111 15.277 15.3504 15.3685C15.3896 15.46 15.4103 15.5585 15.4111 15.658C15.4119 15.7576 15.3929 15.8564 15.3551 15.9485C15.3174 16.0407 15.2616 16.1244 15.1912 16.1948C15.1207 16.2652 15.037 16.3208 14.9448 16.3585C14.8526 16.3962 14.7538 16.4151 14.6542 16.4142C14.5547 16.4133 14.4563 16.3925 14.3648 16.3532C14.2733 16.3138 14.1906 16.2566 14.1214 16.185L14.1234 16.186Z" fill="white"/>
</g>
<defs>
<clipPath id="clip0_569_2936">
<rect width="24" height="24" fill="white"/>
</clipPath>
</defs>
</svg>
