<svg width="24" height="24" viewBox="0 0 24 24" fill="none" xmlns="http://www.w3.org/2000/svg">
<g id="icon-btn-fly-d2290abb 1">
<path id="Vector" d="M6.13456 7.91992L9.16756 8.92942L6.13456 11.9624L3.10156 10.9514L6.13456 7.91992Z" fill="white"/>
<path id="Vector_2" fill-rule="evenodd" clip-rule="evenodd" d="M9.90813 8.75411C9.93801 8.88075 9.93509 9.01292 9.89966 9.13812C9.86423 9.26332 9.79744 9.37741 9.70563 9.46961L6.67263 12.5026C6.57226 12.6028 6.44603 12.6731 6.30803 12.7056C6.17003 12.7382 6.02569 12.7318 5.89113 12.6871L2.85813 11.6761C2.73476 11.6348 2.62396 11.5627 2.5362 11.4667C2.44845 11.3707 2.38663 11.2538 2.3566 11.1273C2.32657 11.0007 2.32931 10.8685 2.36458 10.7433C2.39984 10.6181 2.46646 10.5039 2.55813 10.4116L5.59413 7.38011C5.69436 7.28022 5.82033 7.2101 5.95803 7.17753C6.09573 7.14495 6.23977 7.15121 6.37413 7.19561L9.40863 8.20661C9.53191 8.24799 9.64262 8.32011 9.73028 8.41617C9.81794 8.51224 9.87967 8.62906 9.90963 8.75561L9.90813 8.75411ZM6.33813 8.79311L4.51413 10.6186L5.92563 11.0896L7.75113 9.26411L6.33813 8.79311Z" fill="white"/>
<path id="Vector_3" d="M16.2432 18.0286L15.2307 14.9956L12.1992 18.0286L13.2102 21.0616L16.2417 18.0286H16.2432Z" fill="white"/>
<path id="Vector_4" fill-rule="evenodd" clip-rule="evenodd" d="M15.4095 14.2516C15.2827 14.2219 15.1505 14.2251 15.0253 14.2608C14.9001 14.2965 14.786 14.3635 14.694 14.4556L11.661 17.4886C11.5608 17.589 11.4905 17.7152 11.458 17.8532C11.4254 17.9912 11.4318 18.1355 11.4765 18.2701L12.4875 21.3031C12.529 21.4264 12.6012 21.537 12.6973 21.6246C12.7934 21.7122 12.9102 21.7738 13.0368 21.8037C13.1634 21.8336 13.2955 21.8307 13.4206 21.7953C13.5457 21.76 13.6598 21.6933 13.752 21.6016L16.785 18.5686C16.8852 18.4682 16.9554 18.342 16.988 18.204C17.0206 18.066 17.0142 17.9217 16.9695 17.7871L15.9585 14.7541C15.9173 14.6305 15.8453 14.5195 15.7492 14.4316C15.6531 14.3437 15.5362 14.2817 15.4095 14.2516ZM15.3705 17.8216L13.545 19.6471L13.074 18.2341L14.8995 16.4101L15.3705 17.8216Z" fill="white"/>
<path id="Vector_5" d="M15.2295 2.86499H21.2955V8.93099L11.691 18.534L5.625 12.4695L15.2295 2.86499Z" fill="white"/>
<path id="Vector_6" fill-rule="evenodd" clip-rule="evenodd" d="M21.5652 2.59492C21.6005 2.63042 21.6285 2.67254 21.6476 2.71887C21.6666 2.7652 21.6763 2.81483 21.6762 2.86492V8.93092C21.6763 9.03206 21.6364 9.12914 21.5652 9.20092L11.9607 18.8039C11.8107 18.9539 11.5707 18.9539 11.4207 18.8039L5.35469 12.7379C5.20469 12.5879 5.20469 12.3479 5.35469 12.1979L14.9592 2.59492C15.0307 2.52313 15.1278 2.48267 15.2292 2.48242H21.2952C21.3957 2.48242 21.4932 2.52292 21.5652 2.59492ZM15.3867 3.24592L6.16469 12.4679L11.6907 17.9939L20.9127 8.77192V3.24742H15.3882L15.3867 3.24592Z" fill="white"/>
<path id="Vector_7" d="M17.2541 9.435C17.0881 9.60095 16.8911 9.7326 16.6743 9.82241C16.4574 9.91223 16.225 9.95846 15.9903 9.95846C15.7556 9.95846 15.5232 9.91223 15.3064 9.82241C15.0896 9.7326 14.8925 9.60095 14.7266 9.435C14.5606 9.26904 14.429 9.07202 14.3392 8.85518C14.2494 8.63835 14.2031 8.40595 14.2031 8.17125C14.2031 7.93655 14.2494 7.70414 14.3392 7.48731C14.429 7.27047 14.5606 7.07345 14.7266 6.9075C15.0618 6.57233 15.5163 6.38403 15.9903 6.38403C16.225 6.38403 16.4574 6.43026 16.6743 6.52008C16.8911 6.60989 17.0881 6.74154 17.2541 6.9075C17.42 7.07345 17.5517 7.27047 17.6415 7.48731C17.7313 7.70414 17.7775 7.93655 17.7775 8.17125C17.7775 8.40595 17.7313 8.63835 17.6415 8.85518C17.5517 9.07202 17.42 9.26904 17.2541 9.435Z" fill="white"/>
<path id="Vector_8" fill-rule="evenodd" clip-rule="evenodd" d="M11.9999 12.1649C12.2146 12.3798 12.3352 12.6712 12.3352 12.9749C12.3352 13.2787 12.2146 13.57 11.9999 13.7849L7.95594 17.8274L6.33594 16.2074L10.3784 12.1634C10.5933 11.9487 10.8847 11.8281 11.1884 11.8281C11.4922 11.8281 11.7835 11.9487 11.9984 12.1634L11.9999 12.1649Z" fill="white"/>
<path id="Vector_9" d="M3.73525 14.3625L5.25025 15.879L3.73525 17.3955L2.21875 15.8805L3.73375 14.3625H3.73525ZM8.28325 18.912L9.79975 20.427L8.28475 21.945L6.76825 20.4285L8.28325 18.912ZM3.36025 19.2975L4.87525 20.814L3.36025 22.3305L1.84375 20.8155L3.35875 19.2975H3.36025Z" fill="white"/>
</g>
</svg>
