<svg width="16" height="16" viewBox="0 0 16 16" fill="none" xmlns="http://www.w3.org/2000/svg">
<path d="M7.51339 2.94093C7.66774 2.59468 7.74491 2.42155 7.85236 2.36823C7.94571 2.32192 8.05534 2.32192 8.14868 2.36823C8.25614 2.42155 8.33331 2.59468 8.48765 2.94093L9.71701 5.69888C9.76264 5.80124 9.78545 5.85242 9.82076 5.89162C9.85199 5.9263 9.89016 5.95403 9.9328 5.97302C9.98099 5.99449 10.0367 6.00037 10.1482 6.01213L13.151 6.32907C13.528 6.36886 13.7165 6.38875 13.8004 6.47447C13.8733 6.54894 13.9072 6.6532 13.892 6.75629C13.8745 6.87497 13.7337 7.00186 13.4521 7.25564L11.209 9.27709C11.1258 9.35211 11.0841 9.38963 11.0578 9.43531C11.0344 9.47574 11.0199 9.52061 11.015 9.56703C11.0094 9.61949 11.0211 9.6743 11.0443 9.78394L11.6708 12.7378C11.7495 13.1086 11.7888 13.294 11.7332 13.4003C11.6849 13.4927 11.5962 13.5571 11.4935 13.5745C11.3752 13.5945 11.211 13.4998 10.8826 13.3104L8.26699 11.8018C8.16991 11.7458 8.12137 11.7178 8.06977 11.7068C8.02411 11.6971 7.97693 11.6971 7.93128 11.7068C7.87968 11.7178 7.83114 11.7458 7.73406 11.8018L5.1184 13.3104C4.79001 13.4998 4.62582 13.5945 4.50755 13.5745C4.40481 13.5571 4.31611 13.4927 4.26782 13.4003C4.21222 13.294 4.25155 13.1086 4.33021 12.7378L4.95672 9.78394C4.97997 9.6743 4.9916 9.61949 4.98608 9.56703C4.98119 9.52061 4.96661 9.47574 4.94328 9.43531C4.91691 9.38963 4.87529 9.35211 4.79204 9.27709L2.54896 7.25564C2.26735 7.00186 2.12654 6.87497 2.10904 6.75629C2.09384 6.6532 2.12771 6.54894 2.20061 6.47447C2.28452 6.38875 2.47302 6.36886 2.85002 6.32907L5.85288 6.01213C5.96433 6.00037 6.02006 5.99449 6.06825 5.97302C6.11088 5.95403 6.14905 5.9263 6.18029 5.89162C6.21559 5.85242 6.23841 5.80124 6.28403 5.69888L7.51339 2.94093Z" fill="#FFBC46" stroke="#FFBC46" stroke-width="2" stroke-linecap="round" stroke-linejoin="round"/>
</svg>
